<svg width="273" height="425" viewBox="0 0 273 425" fill="none" xmlns="http://www.w3.org/2000/svg">
<path d="M166.058 58.241L169.099 58.4036C172.978 58.8005 176.478 55.9598 176.875 52.0957L177.994 41.1585C178.391 37.2944 175.541 33.8081 171.663 33.4159L168.315 33.1911C164.432 32.7942 164.283 35.8597 163.891 39.7238L162.767 50.661C162.37 54.5203 162.174 57.844 166.058 58.241Z" fill="#C63647"/>
<path d="M163.786 57.9827L167.717 58.3797C170.515 58.6666 173.035 56.615 173.322 53.8173L174.843 39.0017C175.13 36.1992 173.073 33.679 170.271 33.392L166.345 32.9903C163.547 32.7081 161.022 34.7598 160.735 37.5574L159.219 52.3683C158.927 55.1707 160.984 57.6958 163.786 57.9827Z" fill="#FF4D57"/>
<path d="M174.336 40.0442C174.704 40.0442 175.053 39.8242 175.197 39.4656C184.001 17.1991 165.192 9.16479 165.001 9.08827C164.527 8.89219 163.992 9.11696 163.796 9.58563C163.599 10.0543 163.824 10.5947 164.293 10.7908C165.005 11.0825 181.605 18.2369 173.48 38.7913C173.288 39.2599 173.523 39.7955 173.996 39.9821L174.336 40.0442Z" fill="#FF4D57"/>
<path d="M138.555 76.9303C136.885 75.6247 136.278 72.9897 134.236 72.4349C133.61 72.2675 132.902 72.3297 132.342 71.9949C131.615 71.5645 131.391 70.6416 131.08 69.8573C129.961 67.0357 128.449 66.8779 126.704 65.3762L126.293 67.753L125.848 70.3355C128.148 72.2484 132.338 75.9117 137.708 76.8347C137.99 76.8825 138.272 76.892 138.555 76.9303Z" fill="#F4737F"/>
<path d="M146.331 76.9111C146.149 76.7629 145.948 76.6577 145.752 76.5429C143.576 77.0259 141.108 77.2411 138.554 76.9303C140.439 78.3937 143.294 77.9106 145.326 79.0632C142.906 79.594 140.137 79.8475 137.278 79.3501C131.902 78.4271 127.713 74.7591 125.413 72.851L125.843 70.3354L122.873 89.1491C120.745 98.1255 143.112 99.302 145.809 90.4881L150.338 78.0254C148.176 79.1971 148.086 78.3411 146.331 76.9111Z" fill="#FF969B"/>
<path d="M125.413 72.851C127.713 74.7591 131.902 78.4271 137.277 79.3501C140.137 79.8475 142.906 79.594 145.326 79.0632C143.294 77.9106 140.439 78.3937 138.554 76.9303C138.272 76.892 137.99 76.8824 137.708 76.8346C132.337 75.9116 128.148 72.2484 125.843 70.3354L125.408 72.851H125.413Z" fill="#F4737F"/>
<path d="M129.018 48.9058C129.124 48.4754 129.229 48.045 129.334 47.6146C128.66 46.6008 128.134 46.8303 128.803 45.41C130.482 41.8232 130.171 42.3349 131.486 34.7597C123.342 28.5188 120.592 46.9403 129.018 48.9058ZM176.225 39.4225C176.636 40.7281 175.527 41.9715 174.623 43.0045C173.881 43.8557 172.193 47.3899 171.069 48.6476C172.289 41.608 172.241 41.9715 172.423 40.6372C172.069 38.4565 172.007 35.4914 171.629 33.5355C171.199 31.3165 169.376 29.0162 167.143 29.3605C166.206 29.5087 165.364 30.1018 164.412 30.1639C163.676 30.2117 162.858 29.614 162.782 28.9731C162.49 29.0449 162.198 29.1166 161.911 29.1835C159.898 30.5226 157.382 31.0773 154.986 30.7617C150.094 31.5891 143.389 30.4317 140.405 26.8163C138.588 28.7818 141.271 30.0109 140.443 31.8425C139.908 33.0238 137.942 33.0572 137.541 34.2958C137.34 34.9032 137.631 35.6062 137.392 36.2088C136.9 37.4665 135.264 37.0983 134.026 37.3517L133.566 40.0107C130.496 56.6723 158.148 65.467 169.678 56.6915L169.113 59.9387L168.76 62.0142L168.707 62.2963C168.396 64.0945 167.411 66.4283 165.957 68.8386C166.254 72.5735 166.512 71.3923 160.768 79.7709C160.481 80.187 160.194 80.6078 159.817 80.9378C159.281 81.4017 158.607 81.6647 158.023 82.0569C156.875 82.8412 156.015 84.1994 154.637 84.3859C153.867 84.4911 153.303 84.295 152.748 84.0989C151.873 83.7881 151.022 83.4772 149.429 84.3476C147.268 85.5193 147.172 84.6633 145.417 83.2333C145.24 83.0851 145.039 82.9751 144.838 82.8651C142.811 81.7126 139.956 82.1956 138.071 80.7322C136.402 79.4314 135.795 76.7916 133.753 76.2368C133.122 76.0694 132.419 76.1316 131.859 75.8016C131.132 75.3664 130.907 74.4434 130.592 73.6544C129.478 70.8376 127.966 70.6845 126.221 69.1781C124.141 67.3943 125.848 65.9787 125.245 63.9606C125.059 63.3389 124.614 62.808 124.466 62.1768C124.107 60.656 125.48 59.3696 126.154 57.9301C121.592 51.3161 121.874 43.9035 122.797 35.6492C122.797 35.6492 122.787 34.8315 122.84 33.5115L122.701 33.6263C120.496 31.9764 118.521 26.6011 120.649 24.2195C121.166 23.6408 121.893 23.2582 122.352 22.6318C123.38 21.2401 122.778 19.2937 122.849 17.5625C122.916 15.8265 124.834 13.8562 126.116 15.0231C125.355 12.4645 124.69 9.39908 126.436 7.37616C128.124 5.43932 130.85 5.66887 133.6 5.89842C136.23 6.11841 138.88 6.33839 140.678 4.67893C141.782 3.66029 142.318 2.08691 143.566 1.25957C145.288 0.111811 147.717 0.867416 149.214 2.29255C150.228 3.25858 150.95 4.46372 151.658 5.68322C153.456 6.66359 155.398 6.00841 156.072 4.76023C156.249 4.4159 156.297 4.20069 156.636 4.05244C156.832 3.73681 157.067 3.45465 157.402 3.2777C158.133 2.89512 159.032 3.05294 159.817 3.32075C165.029 5.09499 165.68 9.43734 167.186 11.5798C169.133 14.344 172.992 15.75 173.881 19.0115C174.369 20.781 173.834 22.7513 174.541 24.4443C175.287 26.2424 177.32 27.3997 177.655 29.3127C178.19 32.359 174.135 35.2141 175.455 38.0117C175.68 38.4995 176.062 38.9108 176.225 39.4225Z" fill="#231866"/>
<path d="M172.418 40.6802C172.059 38.4851 171.997 35.5153 171.619 33.545C171.189 31.3212 169.357 29.0113 167.115 29.3557C166.172 29.5039 165.326 30.1017 164.374 30.1639C163.628 30.2117 162.815 29.6139 162.739 28.9683C162.447 29.0352 162.155 29.1118 161.859 29.1787C159.841 30.5273 157.316 31.0821 154.91 30.7664C149.917 31.6129 143.227 30.3886 140.267 26.7971C138.44 28.777 141.142 30.0108 140.31 31.852C139.769 33.038 137.794 33.0715 137.392 34.3101C137.187 34.9271 137.483 35.6301 137.244 36.2326C136.747 37.4952 135.106 37.1269 133.863 37.3852L133.404 40.0537C130.587 55.3141 155.446 66.6052 169.664 56.8014C170.974 49.1975 172.189 42.3492 172.418 40.6802Z" fill="#FF969B"/>
<path d="M129.019 48.9059C129.124 48.4755 129.229 48.0451 129.334 47.6147C128.66 46.6008 128.134 46.8304 128.803 45.41C130.477 41.8281 130.171 42.335 131.486 34.7598C123.342 28.5141 120.621 46.9452 129.019 48.9059Z" fill="#F38C65"/>
<path d="M140.496 424.734H121.367V325.611H140.496V424.734Z" fill="#20186B"/>
<path d="M166.851 327.629H122.758V274.254H166.851V327.629Z" fill="#5A3ECE"/>
<path d="M133.576 327.629H89.4878V274.254H133.576V327.629Z" fill="#2F217F"/>
<path d="M36.4853 278.778H143.351L119.315 79.594C118.273 70.9476 110.908 64.4436 102.17 64.4436H10.6177L36.4853 278.778Z" fill="#614DD6"/>
<path d="M39.9334 297.759H41.8894C48.9385 297.759 54.0173 292.01 53.1661 284.99L28.0971 77.2172C27.2459 70.192 20.785 64.4436 13.7406 64.4436H11.7799C4.72594 64.4436 -0.348103 70.192 0.503151 77.2172L25.5673 284.99C26.4186 292.01 32.8795 297.759 39.9334 297.759Z" fill="#2F217F"/>
<path d="M248.328 217.918L72.324 223.776V253.585H235.774L248.328 217.918Z" fill="#252254"/>
<path d="M153.408 188.827C160.07 173.356 176.038 170.511 183.355 155.427C189.701 142.333 183.518 116.126 173.934 105.017L173.714 104.763C154.546 89.5317 145.517 90.2778 134.642 91.0238C131.462 91.2438 128.134 91.459 124.346 91.2821C123.394 91.2342 122.457 91.2151 121.525 91.196C103.328 90.823 84.0886 95.1892 78.0007 110.397C62.4916 149.172 57.1115 196.163 52.707 237.879C52.3675 241.131 52.1379 244.747 54.4095 247.195L54.5865 247.262L115.929 230.916C123.811 230.916 147.66 202.198 153.408 188.827Z" fill="#EEEEEE"/>
<path d="M78.7132 108.986C82.166 100.206 94.6144 92.5158 104.471 95.2178C112.883 97.5277 115.68 109.393 112.223 118.192C106.427 132.955 99.1911 148.885 92.1993 164.619L62.9124 155.049C67.6612 140.019 72.4387 124.973 78.7132 108.986Z" fill="#EEEEEE"/>
<path d="M46.4995 203.031C53.0465 186.364 57.9627 170.716 62.9124 155.05L92.1993 164.619C87.2257 175.8 82.3812 186.885 78.2589 197.373C101.501 198.66 131.214 206.636 154.948 206.378C177.368 206.13 176.086 227.53 153.69 227.779C137.579 227.956 123.294 226.894 109.009 225.828C94.7244 224.761 80.4348 223.7 64.3184 223.877C53.8882 223.992 42.3436 213.628 46.4995 203.031Z" fill="#FF969B"/>
<path d="M236.362 262.379L226.473 258.467C237.931 256.989 247.515 255.665 253.072 254.684C263.282 252.896 270.116 243.235 268.394 233.049C270.016 242.083 265.372 259.711 248.983 265.679C246.831 266.458 244.684 267.181 242.536 267.874C241.8 265.832 239.753 263.718 236.362 262.379Z" fill="#252254"/>
<path d="M48.5464 233.394C46.8344 243.58 53.6635 253.231 63.869 255.019C69.1296 255.942 78.1395 257.171 89.0001 258.544L80.4158 261.939C76.6665 263.422 74.5431 265.832 74.0027 268.08C71.9894 267.425 69.976 266.741 67.9627 266.004C51.5784 260.045 46.9348 242.442 48.5464 233.394Z" fill="#252254"/>
<path d="M116.03 271.379C119.454 271.834 123.868 271.638 129.401 270.533C132.07 269.992 143.528 268.577 158.597 266.755C174.915 268.649 187.463 270.146 190.232 270.696C194.68 271.585 198.334 271.882 201.318 271.738L222.484 273.024C201.901 277.056 181.337 277.434 160.582 275.913C137.541 277.874 114.748 277.654 91.9221 272.838L116.011 271.384L116.03 271.379Z" fill="#4F1D51"/>
<path d="M210.524 260.481C216.081 259.792 221.456 259.122 226.473 258.467L236.363 262.379C239.753 263.718 241.8 265.832 242.536 267.874C243.703 271.102 241.599 274.177 236.229 273.852L222.484 273.025L201.318 271.738C210.892 271.274 213.235 266.143 210.524 260.481Z" fill="#FF4D57"/>
<path d="M201.318 271.738C198.333 271.882 194.68 271.585 190.232 270.696C187.463 270.146 174.914 268.649 158.597 266.755C173.982 264.904 193.13 262.633 210.524 260.48C213.235 266.143 210.892 271.274 201.318 271.738Z" fill="#362E6D"/>
<path d="M80.4156 261.939L88.9999 258.544L114.021 248.649C115.633 248.013 117.22 248.448 117.335 249.567L117.354 249.739C104.767 256.97 102.18 269.548 116.03 271.379L91.9219 272.838L80.5495 273.527C75.4516 273.833 73.266 271.112 74.0025 268.08C74.5429 265.832 76.6663 263.422 80.4156 261.939Z" fill="#FF4D57"/>
<path d="M40.8851 297.587H191.485C199.606 297.587 206.253 290.963 206.253 282.871C206.253 274.784 199.606 268.161 191.485 268.161H40.8851C32.7647 268.161 26.1221 274.784 26.1221 282.871C26.1221 290.963 32.7647 297.587 40.8851 297.587Z" fill="#2F217F"/>
<path d="M48.3838 424.734C48.3742 424.557 48.3599 424.38 48.3599 424.199C48.3599 418.881 52.7309 414.529 58.0728 414.529H153.662C158.999 414.529 163.37 418.881 163.37 424.199C163.37 424.38 163.351 424.557 163.341 424.734H48.3838Z" fill="#161354"/>
<path d="M105.117 424.734L105.107 424.524C105.107 419.196 109.473 414.84 114.815 414.84H210.409C215.746 414.84 220.117 419.196 220.117 424.519L220.107 424.734H105.117Z" fill="#20186B"/>
<path d="M123.041 53.6833L126.082 53.8459C129.961 54.2429 133.461 51.4022 133.858 47.5381L134.977 36.6009C135.374 32.7368 132.524 29.2504 128.646 28.8535L125.298 28.6335C121.419 28.2366 121.266 31.3021 120.874 35.1662L119.75 46.0986C119.358 49.9675 119.162 53.2864 123.041 53.6833Z" fill="#C63647"/>
<path d="M120.769 53.4252L124.7 53.8269C127.498 54.109 130.018 52.0526 130.31 49.2598L131.826 34.4441C132.113 31.6417 130.056 29.1166 127.259 28.8345L123.327 28.4327C120.53 28.1458 118.009 30.2022 117.723 32.9999L116.202 47.8155C115.915 50.6132 117.971 53.1382 120.769 53.4252Z" fill="#FF4D57"/>
<path d="M83.8974 229.008H190.605C192.858 229.008 194.699 227.172 194.699 224.924C194.699 222.686 192.858 220.845 190.605 220.845H83.8974C81.6497 220.845 79.8037 222.686 79.8037 224.924C79.8037 227.172 81.6497 229.008 83.8974 229.008Z" fill="#181251"/>
<path d="M125.561 229.008H232.269C234.517 229.008 236.363 227.172 236.363 224.924C236.363 222.686 234.517 220.845 232.269 220.845H125.561C123.308 220.845 121.467 222.686 121.467 224.924C121.467 227.172 123.308 229.008 125.561 229.008Z" fill="#2B1E77"/>
<path d="M73.4431 218.659C78.4788 219.845 83.9737 221.045 90.1047 222.332C98.3159 224.054 106.498 225.699 114.648 227.358C122.352 228.917 130.023 230.5 137.67 232.164C144.398 233.632 151.108 235.177 157.789 236.837C154.527 237.659 151.275 238.51 148.028 239.4C139.793 241.648 131.601 244.134 123.457 246.956C121.218 247.736 119.186 248.682 117.354 249.739L117.335 249.567C117.22 248.448 115.633 248.013 114.021 248.649L88.9999 258.544C78.1393 257.171 69.1294 255.942 63.8688 255.019C53.6634 253.23 46.8342 243.58 48.5463 233.393C50.1053 224.164 58.0822 217.803 67.0156 217.727C68.546 217.717 70.105 217.865 71.664 218.243C72.2427 218.377 72.8548 218.516 73.4431 218.659Z" fill="#362E6D"/>
<path d="M253.072 254.684C247.515 255.665 237.931 256.989 226.473 258.467C221.456 259.122 216.081 259.792 210.524 260.48C193.13 262.632 173.982 264.904 158.597 266.755C143.528 268.577 132.07 269.992 129.401 270.533C123.868 271.638 119.454 271.834 116.03 271.379C102.18 269.548 104.767 256.97 117.354 249.739C119.186 248.682 121.219 247.736 123.457 246.956C131.601 244.134 139.793 241.648 148.028 239.4C151.275 238.51 154.527 237.659 157.789 236.837C163.576 235.388 169.381 234.029 175.211 232.733C182.624 231.079 190.065 229.52 197.535 227.989C207.257 226.005 217.023 224.058 226.841 221.997C230.968 221.136 234.794 220.309 238.414 219.496C240.791 218.965 243.096 218.434 245.272 217.908C245.827 217.779 246.372 217.688 246.922 217.602C257.017 216.077 266.668 222.815 268.394 233.049C270.116 243.235 263.282 252.896 253.072 254.684Z" fill="#433B7F"/>
<path d="M126.627 225.933H132.404C132.839 225.933 133.193 225.579 133.193 225.139V224.537C133.193 224.101 132.839 223.748 132.404 223.748H126.627C126.192 223.748 125.838 224.101 125.838 224.537V225.139C125.838 225.579 126.192 225.933 126.627 225.933Z" fill="#ADE3F7"/>
<path d="M118.775 104.132H148.081C150.826 104.132 153.074 101.884 153.074 99.1393V95.3326C153.074 92.5875 150.826 90.3398 148.081 90.3398H118.775C116.03 90.3398 113.782 92.5875 113.782 95.3326V99.1393C113.782 101.884 116.03 104.132 118.775 104.132Z" fill="#FF969B"/>
<path d="M130.73 212.103L131.759 210.572L119.674 202.548C111.788 197.306 106.585 189.286 105.016 179.97C103.452 170.654 105.752 161.381 111.496 153.868L113.897 150.731C121.984 140.148 126.441 126.996 126.441 113.692V52.9231H124.595V113.692C124.595 126.595 120.276 139.354 112.433 149.617L110.033 152.754C103.973 160.678 101.549 170.453 103.199 180.276C104.849 190.099 110.339 198.55 118.65 204.078L130.73 212.103Z" fill="#FF4D57"/>
<path fill-rule="evenodd" clip-rule="evenodd" d="M140.821 81.8083L148.081 64.8215L140.821 81.8083ZM148.975 62.7364L150.305 59.6231L148.975 62.7364ZM163.121 29.6284L163.614 28.4758L163.121 29.6284Z" fill="url(#paint0_linear)"/>
<path fill-rule="evenodd" clip-rule="evenodd" d="M155.814 46.73L156.488 45.1519L155.814 46.7252V46.73Z" fill="url(#paint1_linear)"/>
<path fill-rule="evenodd" clip-rule="evenodd" d="M155.235 48.0833L155.814 46.7299V46.7251L155.235 48.0833Z" fill="url(#paint2_linear)"/>
<path fill-rule="evenodd" clip-rule="evenodd" d="M90.9225 198.573L102.883 170.582L90.9225 198.573C90.9178 198.573 90.9225 198.573 90.9225 198.573ZM111.099 151.353L124.16 120.798L111.099 151.353ZM126.412 115.528L131.285 104.132L126.412 115.528Z" fill="url(#paint3_linear)"/>
<path fill-rule="evenodd" clip-rule="evenodd" d="M81.573 220.448L90.9225 198.573C90.9177 198.573 90.9225 198.573 90.9225 198.573L81.573 220.448Z" fill="url(#paint4_linear)"/>
<path fill-rule="evenodd" clip-rule="evenodd" d="M102.883 170.582L111.099 151.353L102.883 170.582ZM124.16 120.798L126.412 115.528L124.16 120.798Z" fill="url(#paint5_linear)"/>
<path d="M123.122 220.845H236.362L271.469 151.635C273.449 147.737 270.604 143.132 266.223 143.132H168.324C164.781 143.132 161.538 145.121 159.936 148.273L123.122 220.845Z" fill="#2B1E77"/>
<path d="M96.3457 297.587H241.7C249.815 297.587 256.458 290.963 256.458 282.871C256.458 274.784 249.815 268.161 241.7 268.161H96.3457C88.2253 268.161 81.5874 274.784 81.5874 282.871C81.5874 290.963 88.2253 297.587 96.3457 297.587Z" fill="#614DD6"/>
<path d="M126.111 29.6667C126.575 29.6667 126.972 29.3224 127.029 28.8537C128.081 19.8103 131.29 13.4068 136.56 9.8057C143.896 4.79383 152.82 7.02239 152.911 7.0463C153.418 7.17542 153.911 6.87892 154.035 6.38634C154.164 5.89376 153.867 5.39162 153.375 5.26249C152.973 5.16206 143.542 2.80916 135.513 8.2897C129.784 12.2016 126.316 19.0499 125.197 28.6433C125.14 29.1502 125.499 29.6045 126.006 29.6619L126.111 29.6667Z" fill="#FF4D57"/>
<defs>
<linearGradient id="paint0_linear" x1="80.2484" y1="239.209" x2="194.675" y2="108.551" gradientUnits="userSpaceOnUse">
<stop stop-color="#231866"/>
<stop offset="0.819608" stop-color="#231866"/>
<stop offset="1" stop-color="#231866"/>
</linearGradient>
<linearGradient id="paint1_linear" x1="88.1671" y1="239.223" x2="202.502" y2="108.554" gradientUnits="userSpaceOnUse">
<stop stop-color="#F4737F"/>
<stop offset="0.819608" stop-color="#F4737F"/>
<stop offset="1" stop-color="#F4737F"/>
</linearGradient>
<linearGradient id="paint2_linear" x1="86.872" y1="239.227" x2="201.283" y2="108.555" gradientUnits="userSpaceOnUse">
<stop stop-color="#2E273F"/>
<stop offset="0.819608" stop-color="#2E273F"/>
<stop offset="1" stop-color="#2E273F"/>
</linearGradient>
<linearGradient id="paint3_linear" x1="-1.97401" y1="239.209" x2="112.443" y2="108.551" gradientUnits="userSpaceOnUse">
<stop stop-color="white"/>
<stop offset="0.819608" stop-color="white"/>
<stop offset="1" stop-color="white"/>
</linearGradient>
<linearGradient id="paint4_linear" x1="-51.6675" y1="239.209" x2="62.7399" y2="108.551" gradientUnits="userSpaceOnUse">
<stop stop-color="#FF969B"/>
<stop offset="0.819608" stop-color="#FF969B"/>
<stop offset="1" stop-color="#FF969B"/>
</linearGradient>
<linearGradient id="paint5_linear" x1="5.11328" y1="239.209" x2="119.54" y2="108.551" gradientUnits="userSpaceOnUse">
<stop stop-color="#FF4D57"/>
<stop offset="0.819608" stop-color="#FF4D57"/>
<stop offset="1" stop-color="#FF4D57"/>
</linearGradient>
</defs>
</svg>
