<svg width="437" height="329" viewBox="0 0 437 329" fill="none" xmlns="http://www.w3.org/2000/svg">
<g clip-path="url(#clip0_2019_32301)">
<path opacity="0.2" d="M391.652 321.282C391.652 321.282 425.803 302.695 434.677 259.596C443.551 216.497 405.008 177.079 401.333 155.53C397.658 133.98 405.815 107.223 371.664 86.3917C337.513 65.5605 276.74 73.013 253.704 67.8052C230.668 62.6872 203.957 27.0407 157.974 35.2116C111.991 43.3824 67.4428 67.895 65.2916 121.41C63.0508 174.924 80.171 176.361 63.0508 205.363C46.0201 234.365 39.2975 254.388 47.4543 284.109C55.6111 313.829 72.6417 322 72.6417 322L391.652 321.282Z" fill="#225CEF"/>
<path opacity="0.2" d="M367.153 326.452C367.153 326.452 421.563 286.799 437.209 219.318C452.854 151.837 428.938 69.9826 383.596 28.6989C338.353 -12.6868 256.638 15.1415 220.364 49.7995C184.091 84.4574 184.091 84.3555 184.091 84.3555C184.091 84.3555 149.411 103.723 104.069 102.092C58.7274 100.359 18.2683 163.661 7.60547 213.405C-3.0574 263.15 22.4537 329 22.4537 329L367.153 326.452Z" fill="url(#paint0_linear_2019_32301)"/>
<path opacity="0.3" d="M307.67 310.844C310.061 308.35 344.634 239.019 306.076 175.473C267.517 111.928 170.771 119.31 132.212 144.149C93.6533 168.989 74.8223 201.111 70.8369 234.928C66.9511 268.746 92.8562 321.618 92.8562 321.618L307.67 310.844Z" fill="url(#paint1_linear_2019_32301)"/>
<path d="M320.525 299.672V225.352C320.525 225.352 321.322 205.301 310.861 199.515C300.299 193.729 256.061 196.822 256.061 196.822V299.572H320.525V299.672Z" fill="url(#paint2_linear_2019_32301)"/>
<path d="M242.113 127.29C242.113 127.29 244.803 149.835 245.799 151.631C246.796 153.526 246.796 153.526 246.796 153.526L251.977 157.018C251.977 157.018 242.113 171.084 229.957 173.278C217.802 175.573 218.798 168.29 218.798 168.29L220.691 164.4L218.2 142.952C218.2 143.052 240.319 132.876 242.113 127.29Z" fill="#FF9D8C"/>
<path d="M258.453 158.913L250.383 155.422C250.383 155.422 245.202 163.901 233.245 168.789C221.289 173.677 221.09 170.884 220.492 168.789C219.894 166.694 220.691 164.5 220.691 164.5L219.795 157.317L215.012 158.913L198.473 293.287L241.117 295.382L258.453 158.913Z" fill="white"/>
<path d="M219 157.417C219 157.417 216.111 164.101 213.42 179.763C210.73 195.425 208.239 221.86 207.642 240.016C207.044 258.172 206.645 299.671 206.645 299.671C206.645 299.671 153.44 299.671 152.842 299.671C152.244 299.671 148.558 279.221 148.558 279.221C148.558 279.221 172.072 259.07 173.267 255.778C174.064 253.583 173.666 212.782 177.153 194.028C180.64 175.274 185.224 171.483 194.689 166.794C204.553 161.906 219 157.417 219 157.417Z" fill="#3D59BC"/>
<path d="M191.005 276.029C191.304 276.029 191.504 275.829 191.504 275.53C191.504 274.033 191.803 253.084 192.002 232.834C192.301 212.583 192.5 191.634 192.5 190.137C192.5 189.838 192.301 189.639 192.002 189.639C191.703 189.639 191.504 189.838 191.504 190.137C191.504 191.634 191.205 212.583 191.005 232.834C190.707 253.084 190.507 274.033 190.507 275.53C190.507 275.829 190.707 276.029 191.005 276.029Z" fill="#8593B6"/>
<path d="M298.211 270.941L298.609 299.671H235.939C235.939 299.671 233.249 275.33 234.245 273.036C235.341 270.741 298.211 270.941 298.211 270.941Z" fill="#3D59BC"/>
<path d="M228.466 151.033C225.875 153.128 222.388 154.724 219.698 155.721L218.203 142.952C218.203 142.952 234.743 135.371 240.422 129.685C239.226 136.169 236.337 144.748 228.466 151.033Z" fill="#656D8B"/>
<path d="M198.873 85.392C198.873 85.392 194.589 92.774 193.692 101.952C192.895 111.03 193.692 134.373 201.065 144.249C208.438 154.125 223.981 151.232 230.956 145.246C237.432 139.76 243.709 133.675 245.403 121.704C247.096 109.733 241.915 86.9881 227.269 82.2995C212.623 77.6109 198.873 85.392 198.873 85.392Z" fill="#FF9D8C"/>
<path d="M180.243 286.703C180.243 286.703 180.941 286.703 182.037 286.703C182.336 286.703 182.635 286.703 182.834 286.703C183.93 286.703 185.225 286.603 186.52 286.603C186.819 286.603 187.118 286.603 187.417 286.603C188.712 286.603 189.808 286.703 190.904 286.703C191.104 286.703 191.403 286.703 191.702 286.703C191.801 286.703 192 286.703 192 286.703C192.598 286.603 192.698 286.403 193.395 286.204C194.192 285.805 205.551 283.311 214.817 283.311C223.983 283.311 232.253 284.009 233.648 282.812C235.043 281.715 235.84 270.043 227.969 269.345L218.304 273.036C218.304 273.036 196.285 270.442 188.115 276.428C180.044 282.313 180.243 286.703 180.243 286.703Z" fill="#FF9D8C"/>
<path d="M190.907 286.602C191.106 286.602 191.405 286.602 191.704 286.602C191.903 286.303 192.302 285.705 192.501 285.505C194.992 282.912 200.97 281.315 203.162 280.817C203.361 280.717 203.461 280.517 203.461 280.318C203.461 280.118 203.162 280.019 202.963 280.019C199.774 280.817 192.999 282.712 191.106 286.004C191.206 286.104 191.007 286.403 190.907 286.602Z" fill="#223A7A"/>
<path d="M186.623 286.603C186.922 286.603 187.221 286.603 187.52 286.603C190.21 281.615 194.694 280.219 200.174 278.423L200.473 278.323C200.672 278.224 200.771 278.024 200.672 277.825C200.572 277.625 200.373 277.525 200.174 277.625L199.875 277.725C194.096 279.52 189.413 281.017 186.623 286.603Z" fill="#223A7A"/>
<path d="M182.035 286.702C182.334 286.702 182.633 286.702 182.932 286.702C184.626 283.211 190.006 277.425 197.279 276.028C197.478 276.028 197.578 275.829 197.578 275.629C197.578 275.43 197.379 275.33 197.18 275.33C189.707 276.727 183.729 282.812 182.035 286.702Z" fill="#223A7A"/>
<path d="M240.519 111.529C240.519 111.529 235.935 109.334 232.747 103.249C229.559 97.1636 229.957 91.677 229.957 91.677C229.957 91.677 224.178 90.7791 215.51 93.3728C206.842 95.9665 196.579 99.458 187.911 94.4702C179.243 89.4823 179.243 81.6015 183.527 78.3095C188.31 74.6184 197.675 76.9129 197.675 76.9129C197.675 76.9129 194.089 73.4214 195.982 71.3264C197.974 69.2315 205.048 71.925 205.048 71.925C205.048 71.925 213.717 65.0417 230.057 65.8398C246.397 66.6378 254.268 78.11 255.165 90.8789C256.062 103.648 251.478 116.517 251.478 116.517L240.519 111.529Z" fill="#3D59BC"/>
<path d="M207.239 114.622C208.136 116.916 208.136 119.609 208.335 122.004C208.534 123.899 208.833 126.094 207.14 127.39C206.343 127.989 202.357 129.685 204.449 130.982C205.247 131.481 206.542 131.381 207.339 131.281C207.937 131.281 208.534 131.181 209.132 131.181C209.73 131.181 210.428 130.982 211.025 130.982C211.424 130.982 211.524 131.481 211.225 131.68C210.228 132.378 208.634 132.578 207.439 132.578C206.243 132.578 205.446 132.578 204.35 131.979C203.652 131.68 203.055 131.181 202.955 130.383C202.855 129.485 203.553 128.687 204.151 128.189C204.948 127.59 205.844 127.291 206.641 126.792C207.737 125.994 207.638 124.697 207.538 123.5C207.339 120.607 206.641 117.714 206.442 114.721C206.442 114.322 207.14 114.322 207.239 114.622Z" fill="#225CEF"/>
<path d="M198.822 121.503C198.515 119.767 199.276 118.181 200.523 117.96C201.769 117.739 203.028 118.967 203.335 120.703C203.642 122.439 202.88 124.026 201.634 124.247C200.388 124.467 199.129 123.239 198.822 121.503Z" fill="#3D59BC"/>
<path d="M214.527 120.123C214.252 118.27 215.131 116.603 216.492 116.401C217.853 116.198 219.179 117.536 219.454 119.388C219.73 121.241 218.85 122.908 217.489 123.11C216.129 123.313 214.802 121.975 214.527 120.123Z" fill="#3D59BC"/>
<path d="M202.461 114.322C201.464 114.521 200.568 114.322 199.571 114.422C199.372 114.422 199.073 114.521 198.874 114.521C198.675 114.521 199.173 114.521 198.974 114.521H198.874C198.774 114.521 198.675 114.521 198.475 114.621C198.276 114.721 198.077 114.721 197.878 114.821C197.678 114.821 197.479 114.92 197.28 114.92C197.18 114.92 197.08 114.92 196.981 114.92C197.08 114.92 197.08 114.92 197.18 114.92H196.782C196.184 114.821 195.885 114.122 196.084 113.624C196.084 113.424 196.184 113.324 196.283 113.225C196.283 113.125 196.383 113.125 196.383 113.025L196.283 113.125C196.283 113.025 196.383 113.025 196.383 112.925C196.483 112.826 196.483 112.726 196.582 112.726C196.682 112.626 196.782 112.626 196.782 112.526C197.08 112.327 197.379 112.227 197.678 112.127C198.276 112.027 198.874 111.928 199.472 111.928C200.07 111.928 200.667 112.027 201.265 112.027C201.763 112.127 202.361 112.227 202.76 112.626C203.059 112.826 203.258 113.225 203.258 113.624C203.158 113.923 202.859 114.322 202.461 114.322Z" fill="#3D59BC"/>
<path d="M213.521 111.629C213.621 111.529 213.82 111.529 213.92 111.429C214.019 111.329 214.318 111.229 214.119 111.329C214.219 111.329 214.318 111.229 214.418 111.229C214.816 111.03 215.215 110.93 215.614 110.83C216.51 110.631 217.507 110.531 218.503 110.631C219.499 110.731 220.496 111.03 221.392 111.529C221.492 111.629 221.691 111.728 221.791 111.828C221.891 111.928 221.891 112.028 221.99 112.127C221.99 112.127 221.99 112.028 221.891 112.028C222.189 112.227 222.289 112.526 222.289 112.826C222.289 113.125 222.09 113.424 221.891 113.524C221.592 113.723 221.193 113.624 220.894 113.524C221.093 113.524 221.193 113.524 221.392 113.524C221.093 113.524 220.894 113.624 220.595 113.524C220.595 113.524 220.296 113.424 220.496 113.524C220.695 113.524 220.197 113.524 220.197 113.524C220.097 113.524 219.798 113.524 220.197 113.524C220.097 113.524 220.097 113.524 219.997 113.524C219.798 113.524 219.699 113.524 219.499 113.424C218.802 113.324 218.104 113.324 217.507 113.324C216.909 113.324 216.211 113.324 215.614 113.324C215.315 113.324 215.115 113.324 214.816 113.324C214.617 113.324 214.717 113.324 214.816 113.324C214.717 113.324 214.717 113.324 214.617 113.324C214.518 113.324 214.418 113.424 214.318 113.424C213.92 113.624 213.322 113.225 213.222 112.826C212.923 112.327 213.023 111.828 213.521 111.629Z" fill="#3D59BC"/>
<path d="M208.537 140.259C207.641 138.363 205.847 136.967 203.855 136.069C205.548 135.869 213.718 135.171 215.811 136.268C218.102 137.565 215.412 142.852 210.63 143.152C210.132 143.152 209.633 143.152 209.235 143.052C209.235 142.154 209.036 141.157 208.537 140.259Z" fill="#3D59BC"/>
<path d="M246.297 129.186C246.297 129.186 245.5 132.378 240.717 136.069C235.935 139.76 229.06 142.454 229.06 142.454L228.462 140.059C228.462 140.059 235.536 136.967 238.824 133.575C242.112 130.183 242.511 128.288 242.511 128.288L246.297 129.186Z" fill="#DEE1EB"/>
<path d="M227.667 138.363C223.88 138.163 221.688 141.156 221.489 143.151C221.19 145.146 223.083 147.341 227.368 145.346C232.648 142.952 231.552 138.563 227.667 138.363Z" fill="#3D59BC"/>
<path d="M243.308 105.543C243.308 105.543 241.614 93.6716 233.743 85.5913C218.599 70.2286 205.746 71.1265 205.746 71.1265C205.746 71.1265 205.845 68.9318 210.728 67.3357C215.311 65.7396 217.303 66.6374 217.303 66.6374C217.303 66.6374 229.758 67.635 240.319 79.3066C250.881 90.9782 251.977 105.842 251.977 105.842L243.308 105.543Z" fill="#DEE1EB"/>
<path d="M244.404 104.147C254.367 102.451 259.847 110.232 260.246 118.113C260.644 125.994 254.965 131.879 247.393 131.281C230.256 129.884 232.248 106.142 244.404 104.147Z" fill="white"/>
<path d="M249.386 123.6C251.977 123.6 254.269 122.303 255.464 120.008C256.859 117.515 256.66 114.422 255.165 112.227C255.066 112.028 254.866 112.028 254.667 112.128C254.468 112.227 254.468 112.527 254.567 112.626C255.962 114.622 256.062 117.415 254.866 119.609C253.671 121.704 251.678 122.901 249.187 122.901C246.896 122.802 245.002 121.804 243.807 120.008C242.412 117.914 242.113 115.021 243.01 112.726C243.906 110.332 246.298 108.736 248.589 109.035C248.789 109.035 248.988 108.935 248.988 108.736C248.988 108.536 248.888 108.337 248.689 108.337C246.098 108.038 243.309 109.733 242.312 112.427C241.316 115.021 241.714 118.113 243.209 120.407C244.604 122.403 246.696 123.6 249.187 123.699C249.187 123.6 249.287 123.6 249.386 123.6Z" fill="#656D8B"/>
<path d="M256.562 156.021C256.562 156.021 286.651 163.403 297.213 175.373C307.774 187.344 312.656 246.401 312.856 257.274C313.055 268.248 305.483 272.737 300.899 275.829C296.316 278.922 276.389 284.508 260.248 285.306C244.207 286.104 228.963 285.306 228.963 285.306C228.963 285.306 229.062 281.815 226.571 276.627C224.28 271.839 221.39 270.841 221.39 270.841L235.24 265.853C235.24 265.853 237.631 222.459 241.417 201.41C245.602 177.468 256.562 156.021 256.562 156.021Z" fill="#3D59BC"/>
<path d="M206.643 259.07C206.743 259.07 206.743 259.07 206.843 259.07C207.141 258.97 207.241 258.671 207.141 258.372C204.352 251.987 201.363 239.518 199.768 230.739L199.669 230.041C199.171 227.447 198.573 224.255 199.768 222.06C200.366 220.963 201.861 218.469 203.156 216.075C204.551 213.581 205.946 211.286 206.245 210.588C206.942 209.192 204.651 205.6 201.363 200.712C200.466 199.415 199.669 198.218 199.27 197.42C198.075 195.425 198.872 193.53 199.768 191.335L200.067 190.637C200.864 188.641 201.861 186.547 202.758 184.651C203.156 183.853 203.455 183.055 203.854 182.257C204.352 181.16 204.85 180.062 205.348 178.965C208.237 172.481 211.227 165.697 215.112 159.213C215.212 159.014 215.212 158.714 214.913 158.515C214.714 158.415 214.415 158.415 214.216 158.714C210.33 165.298 207.341 171.982 204.352 178.566C203.854 179.663 203.355 180.761 202.857 181.858C202.459 182.656 202.16 183.454 201.761 184.252C200.864 186.247 199.868 188.242 199.071 190.337L198.772 191.036C197.875 193.23 196.879 195.525 198.274 198.019C198.772 198.817 199.569 200.014 200.466 201.311C202.16 203.904 205.747 209.291 205.248 210.189C204.85 210.887 203.555 213.182 202.16 215.576C200.765 217.97 199.37 220.364 198.772 221.561C197.377 224.055 197.975 227.547 198.573 230.24L198.672 230.939C199.27 234.131 202.459 250.491 206.145 258.771C206.344 258.97 206.444 259.07 206.643 259.07Z" fill="#8593B6"/>
<path d="M236.036 260.865C236.136 260.865 236.335 260.865 236.435 260.765C238.826 258.371 250.085 238.819 250.882 235.128C251.38 233.133 250.185 228.045 249.089 223.057C248.192 219.266 247.295 215.276 247.594 214.179C247.993 212.583 250.882 210.188 253.672 207.894C257.059 205.101 260.547 202.308 261.244 199.714C262.041 196.821 261.344 178.466 260.945 166.395C260.746 162.006 260.646 158.614 260.646 157.417C260.646 157.117 260.447 156.918 260.148 156.918C259.849 156.918 259.65 157.117 259.65 157.417C259.65 158.614 259.75 162.105 259.949 166.495C260.347 177.767 261.045 196.721 260.347 199.514C259.75 201.809 256.262 204.602 253.174 207.196C250.085 209.69 247.195 212.084 246.797 213.979C246.498 215.276 247.295 218.967 248.291 223.257C249.288 227.846 250.483 233.133 250.085 234.928C249.288 238.52 238.129 257.773 235.837 260.067C235.638 260.267 235.638 260.566 235.837 260.765C235.837 260.765 235.937 260.865 236.036 260.865Z" fill="#8593B6"/>
<path d="M276.588 252.286C276.887 252.286 277.086 251.987 277.086 251.688C276.687 249.094 271.008 197.42 270.709 193.429C270.709 193.13 270.41 192.931 270.211 192.931C269.912 192.931 269.713 193.23 269.713 193.429C270.012 197.42 275.691 249.094 276.09 251.688C276.09 252.087 276.289 252.286 276.588 252.286Z" fill="#8593B6"/>
<path d="M235.537 266.353C235.637 266.353 235.637 266.353 235.737 266.353C237.032 265.854 242.611 263.958 249.685 261.564C264.033 256.776 283.561 250.092 287.348 248.197C287.547 248.097 287.646 247.798 287.547 247.498C287.447 247.299 287.148 247.199 286.849 247.299C283.163 249.194 262.837 256.078 249.387 260.666C242.312 263.061 236.633 264.956 235.338 265.455C235.039 265.555 234.939 265.854 235.039 266.153C235.139 266.253 235.338 266.353 235.537 266.353Z" fill="#8593B6"/>
<path d="M242.417 286.903C254.971 286.903 279.382 284.608 297.914 278.024C298.213 277.924 298.312 277.625 298.213 277.426C298.113 277.126 297.814 277.027 297.615 277.126C274.201 285.406 241.421 286.803 235.343 285.506C235.044 285.406 234.845 285.606 234.745 285.905C234.645 286.204 234.845 286.404 235.144 286.504C236.439 286.703 239.029 286.903 242.417 286.903Z" fill="#8593B6"/>
<path d="M386.491 163.003C382.605 166.495 377.623 168.689 374.236 172.68C372.841 174.276 371.645 175.872 370.45 177.568C369.553 178.765 367.062 180.76 366.663 182.256C366.464 182.955 366.564 182.057 366.663 181.359V181.259C366.962 178.266 367.261 175.174 367.361 172.081C367.46 168.989 367.261 165.996 367.46 162.904C367.759 158.614 369.055 154.424 372.542 151.731C374.236 150.434 376.428 149.636 378.022 148.139C379.516 146.743 378.919 145.147 378.022 143.65C377.225 142.154 376.228 140.757 375.83 139.161C375.431 137.266 376.129 135.271 377.125 133.675C379.118 130.283 383.701 126.392 387.985 126.891C391.572 127.29 391.971 131.48 391.871 134.373C391.871 137.166 391.572 139.959 391.473 142.753C391.473 145.646 391.971 148.439 391.971 151.332C392.369 156.12 390.078 159.811 386.491 163.003Z" fill="url(#paint3_linear_2019_32301)"/>
<path d="M350.22 207.694C349.124 205.101 347.929 202.706 346.334 200.312C344.242 197.02 341.851 193.928 340.456 190.237C339.061 186.546 339.26 182.555 339.061 178.665C338.961 175.772 338.065 172.979 338.364 170.086C338.463 168.689 339.26 166.494 341.054 166.694C342.449 166.894 343.246 168.589 343.844 169.687C344.74 171.582 345.438 173.677 346.135 175.672C346.434 176.47 346.633 177.268 347.032 178.066C347.231 178.465 347.829 179.563 348.427 179.463C349.423 179.164 348.526 175.074 348.327 174.375C347.53 170.684 346.434 167.293 346.235 163.502C346.036 158.015 346.434 151.431 351.814 148.438C353.209 147.64 355.003 147.142 356.298 148.339C357.593 149.536 357.992 151.531 358.191 153.127C358.789 158.215 357.593 163.003 355.999 167.791C354.704 171.782 353.11 175.772 352.91 180.061C352.811 184.152 354.903 187.743 355.899 191.534C357.494 197.619 357.195 200.911 357.195 202.906C357.195 205.4 357.095 207.794 356.896 210.288C356.696 212.582 356.497 214.877 356.298 217.072C356.198 217.57 356.198 217.969 356.099 218.468C356.995 216.373 357.294 213.979 357.992 211.884C359.287 208.093 360.782 204.502 361.977 200.711C362.974 197.619 363.97 194.427 365.265 191.434C366.56 188.641 368.055 185.648 370.446 183.553C371.841 182.256 373.634 181.558 375.528 181.558C376.723 181.558 377.819 181.957 379.015 182.256C380.41 182.655 381.605 182.456 382.701 181.558C386.587 178.565 387.683 173.278 390.572 169.587C392.665 166.794 397.746 162.005 401.433 165.098C403.425 166.694 403.924 169.886 403.824 172.28C403.724 175.273 402.429 178.066 400.835 180.56C399.141 183.254 397.049 185.648 395.455 188.341C394.558 189.937 394.458 191.534 394.558 193.329C394.658 195.025 394.857 196.721 394.259 198.417C392.466 203.405 386.986 202.706 382.701 202.806C379.712 202.906 376.524 203.305 373.634 204.303C370.347 205.4 368.254 207.595 367.059 210.787C366.162 213.181 365.763 215.775 364.169 217.87C363.372 218.767 362.376 219.466 361.28 219.964C359.586 220.663 354.505 221.062 354.505 220.563C354.405 218.967 353.608 217.371 353.209 215.874C352.313 213.081 351.316 210.388 350.22 207.694Z" fill="#3D59BC"/>
<path d="M326.609 206.697C327.008 203.804 327.008 200.711 328.303 198.018C328.403 197.818 328.702 197.818 328.801 197.918C329.798 198.417 329.798 200.013 329.897 201.011C329.997 202.607 329.897 204.203 330.097 205.799C330.396 208.592 331.093 211.485 332.089 214.079C333.185 217.071 335.278 218.767 338.267 219.665C340.16 220.264 342.053 220.763 343.647 222.059C345.042 223.157 346.038 224.753 346.835 226.449C348.828 230.938 349.824 235.926 350.721 240.814C351.319 244.006 351.817 247.298 352.614 250.49C353.411 253.682 354.208 256.875 354.707 260.167C354.806 260.366 354.906 260.466 354.906 260.665C355.105 261.164 354.308 261.464 354.109 260.965C351.02 256.176 347.234 251.887 342.053 249.293C339.761 248.096 336.673 247.897 334.68 246.001C333.185 244.605 332.986 242.41 333.185 240.514C333.484 238.021 334.68 235.926 335.975 233.731C336.673 232.534 337.47 231.237 337.171 229.84C336.872 228.444 335.776 227.446 334.68 226.748C332.588 225.451 329.997 224.853 328.303 222.857C326.709 221.062 325.812 218.867 325.613 216.473C325.513 213.281 326.111 209.889 326.609 206.697Z" fill="#3D59BC"/>
<path d="M368.754 223.157C371.444 219.666 374.831 216.573 378.518 214.079C380.51 212.782 385.193 210.189 386.09 214.079C386.688 216.374 384.396 218.568 383.001 220.065C380.809 222.16 378.219 224.055 376.425 226.549C378.717 227.247 381.108 227.447 383.101 229.043C385.492 230.938 386.489 234.529 384.197 236.824C383.101 237.921 381.507 238.62 380.112 239.318C378.219 240.216 376.425 241.014 374.532 241.812C370.447 243.508 366.263 245.303 362.775 248.096C359.189 250.989 355.901 255.778 355.602 260.466C355.602 260.865 355.701 260.466 355.502 260.267C355.402 260.367 354.904 260.167 354.904 259.868C355.004 252.985 356.199 246.401 359.089 240.016C361.58 234.23 364.868 228.245 368.754 223.157Z" fill="#3D59BC"/>
<path d="M378.219 158.814C376.725 161.906 375.131 164.999 373.437 168.091C371.843 170.984 370.249 173.977 369.053 177.069C367.558 180.96 366.064 184.751 364.47 188.542C362.876 192.532 361.381 196.622 360.185 200.712C357.894 208.792 356.2 217.072 355.403 225.452C355.004 229.741 354.805 233.931 354.905 238.221C355.004 241.513 355.403 244.905 355.702 248.197C356.001 251.688 356.3 255.18 356.001 258.571C355.802 261.464 355.303 264.956 353.012 266.951C352.613 267.35 351.916 266.851 352.215 266.352C354.905 260.866 354.706 254.88 354.207 248.995C353.908 245.703 353.51 242.411 353.41 239.119C353.311 234.929 353.41 230.739 353.809 226.549C354.606 218.369 356.2 210.289 358.292 202.308C359.388 198.218 360.684 194.228 362.278 190.337C363.872 186.447 365.665 182.556 367.16 178.666C369.85 171.483 374.035 165.198 377.721 158.515C377.921 158.116 378.419 158.415 378.219 158.814Z" fill="url(#paint4_linear_2019_32301)"/>
<path d="M355.203 217.271C354.804 212.084 354.306 207.096 352.513 202.108C351.716 199.814 350.719 197.519 349.922 195.225C349.225 193.329 348.328 190.636 348.826 188.641C348.926 188.441 349.225 188.441 349.324 188.641C349.623 189.838 349.623 191.135 349.823 192.332C350.022 193.529 350.42 194.626 350.719 195.724C351.516 198.118 352.513 200.412 353.409 202.806C355.103 207.395 356 212.483 355.601 217.371C355.601 217.471 355.303 217.471 355.203 217.271Z" fill="url(#paint5_linear_2019_32301)"/>
<path d="M385.393 187.344C383.301 192.332 377.123 192.631 372.64 193.728C369.451 194.526 367.06 196.721 365.366 199.514C363.473 202.607 362.178 206.198 361.182 209.59H361.082C362.377 203.604 364.171 196.422 370.348 193.628C375.33 191.434 381.806 192.531 384.995 187.144C384.995 186.845 385.493 187.044 385.393 187.344Z" fill="url(#paint6_linear_2019_32301)"/>
<path d="M358.492 216.473C358.293 216.772 357.994 217.171 357.795 217.471C357.695 217.67 357.496 217.77 357.396 217.87C357.197 217.969 356.998 218.169 356.798 218.169C356.699 218.169 356.599 218.069 356.699 217.969C356.798 217.77 356.998 217.67 357.097 217.57C357.197 217.471 357.396 217.271 357.496 217.171C357.795 216.872 358.094 216.573 358.293 216.273C358.492 216.373 358.592 216.373 358.492 216.473Z" fill="#43588E"/>
<path d="M371.443 232.334C367.856 235.227 364.568 238.719 361.978 242.51C360.683 244.305 359.587 246.201 358.491 248.196C357.395 250.291 356.598 252.585 355.701 254.78C355.601 254.979 355.302 254.979 355.302 254.78C355.801 250.091 358.79 246.101 361.181 242.11C362.376 240.115 363.971 238.419 365.565 236.724C367.259 234.928 369.052 233.332 371.045 231.935C371.344 231.736 371.643 232.135 371.443 232.334Z" fill="url(#paint7_linear_2019_32301)"/>
<path d="M343.05 226.748C344.744 227.746 344.843 230.439 344.843 232.135C344.943 235.427 344.046 238.619 345.541 241.712C346.836 244.605 348.928 246.999 350.622 249.593C352.216 252.087 353.711 255.279 353.711 258.272C353.711 258.471 353.412 258.571 353.412 258.371C352.814 256.975 352.515 255.478 352.117 254.082C351.619 252.486 350.921 250.989 350.024 249.593C348.43 247.099 346.438 244.904 345.142 242.211C343.747 239.417 343.947 236.624 344.046 233.632C344.146 231.736 344.345 228.544 342.751 227.147C342.452 227.048 342.751 226.649 343.05 226.748Z" fill="url(#paint8_linear_2019_32301)"/>
<path d="M354.505 258.67C361.379 258.57 374.531 258.471 374.531 258.471L371.243 282.712C370.546 288.198 365.863 292.189 360.383 292.189H354.704H354.106H348.427C342.947 292.189 338.264 288.099 337.567 282.712L334.279 258.471C334.478 258.57 347.63 258.57 354.505 258.67Z" fill="white"/>
<path d="M20.626 214.279L60.0816 292.389L174.961 293.187L139.491 213.082L20.626 214.279Z" fill="#F6F7FA"/>
<path d="M251.18 292.688V286.403H176.852L142.677 211.286H23.7125L20.7234 214.179H136.798L172.368 292.588C172.368 292.688 251.18 292.489 251.18 292.688Z" fill="#D9DEE8"/>
<path d="M80.3057 257.374C81.6009 261.264 88.675 264.257 96.048 264.058C103.421 263.858 108.403 260.566 107.108 256.676C105.812 252.785 98.7382 249.792 91.3652 249.992C83.8926 250.191 79.0104 253.483 80.3057 257.374Z" fill="#656D8B"/>
<path d="M172.365 293.187C172.465 293.187 172.465 293.187 172.564 293.187C172.863 293.087 172.963 292.788 172.764 292.489L137.094 213.78H20.6207C20.3217 213.78 20.1225 213.98 20.1225 214.279C20.1225 214.578 20.3217 214.778 20.6207 214.778H136.496L171.966 292.888C171.966 293.087 172.166 293.187 172.365 293.187Z" fill="white"/>
<path d="M256.363 298.674H393.062V329H256.363V298.674Z" fill="#596B9B"/>
<path d="M11.2565 298.674H257.156V329H11.2565V298.674Z" fill="#7A89AF"/>
<path d="M256.363 298.674H257.16H393.062V304.26H257.16H256.363H11.2604V298.674H256.363Z" fill="#BDC4D7"/>
<path d="M250.387 292.688H399.641V300.071H250.387V292.688Z" fill="#6F7FA9"/>
<path d="M5.28781 292.688H251.188V300.071H5.28781V292.688Z" fill="#9CA6C3"/>
<path d="M290.836 133.476H339.159C342.148 133.476 344.539 131.081 344.539 128.089V103.947C344.539 100.955 342.148 98.5605 339.159 98.5605H290.935C287.946 98.5605 285.555 100.955 285.555 103.947V128.089C285.455 131.081 287.847 133.476 290.836 133.476Z" fill="white"/>
<path d="M271.702 116.018L289.836 108.337V123.7L271.702 116.018Z" fill="white"/>
<path d="M326.407 119.311C324.591 119.311 323.119 117.837 323.119 116.019C323.119 114.2 324.591 112.727 326.407 112.727C328.223 112.727 329.695 114.2 329.695 116.019C329.695 117.837 328.223 119.311 326.407 119.311Z" fill="url(#paint9_linear_2019_32301)"/>
<path d="M314.946 119.311C313.131 119.311 311.658 117.837 311.658 116.019C311.658 114.2 313.131 112.727 314.946 112.727C316.762 112.727 318.234 114.2 318.234 116.019C318.234 117.837 316.762 119.311 314.946 119.311Z" fill="url(#paint10_linear_2019_32301)"/>
<path d="M303.587 119.311C301.771 119.311 300.299 117.837 300.299 116.019C300.299 114.2 301.771 112.727 303.587 112.727C305.403 112.727 306.875 114.2 306.875 116.019C306.875 117.837 305.403 119.311 303.587 119.311Z" fill="url(#paint11_linear_2019_32301)"/>
<path d="M35.2724 64.2441H146.665C153.838 64.2441 159.617 70.0301 159.617 77.2126V130.084C159.617 137.267 153.838 143.052 146.665 143.052H136.701C136.402 147.841 137.1 155.023 141.085 164.101C128.232 158.116 120.759 149.237 116.973 143.052H35.2724C28.0987 143.052 22.3199 137.267 22.3199 130.084V77.2126C22.3199 70.0301 28.0987 64.2441 35.2724 64.2441Z" fill="#3D59BC"/>
<path d="M82.8014 89.4829H137.999C139.494 89.4829 140.789 88.2858 140.789 86.6897C140.789 85.1933 139.593 83.8965 137.999 83.8965H82.8014C81.3068 83.8965 80.0116 85.0936 80.0116 86.6897C80.0116 88.1861 81.3068 89.4829 82.8014 89.4829Z" fill="white"/>
<path d="M43.1466 105.544H139.095C139.992 105.544 140.789 104.746 140.789 103.848C140.789 102.95 139.992 102.152 139.095 102.152H43.1466C42.2499 102.152 41.4528 102.95 41.4528 103.848C41.4528 104.746 42.2499 105.544 43.1466 105.544Z" fill="#CBCBCB"/>
<path d="M43.1466 114.821H139.095C139.992 114.821 140.789 114.023 140.789 113.126C140.789 112.228 139.992 111.43 139.095 111.43H43.1466C42.2499 111.43 41.4528 112.228 41.4528 113.126C41.4528 114.123 42.2499 114.821 43.1466 114.821Z" fill="#CBCBCB"/>
<path d="M64.07 124.797H139.095C139.992 124.797 140.789 123.999 140.789 123.101C140.789 122.203 139.992 121.405 139.095 121.405H64.07C63.1733 121.405 62.3762 122.203 62.3762 123.101C62.3762 124.099 63.1733 124.797 64.07 124.797Z" fill="#CBCBCB"/>
<path d="M43.9397 89.4829H70.343C71.8376 89.4829 73.1328 88.2858 73.1328 86.6897C73.1328 85.1933 71.9372 83.8965 70.343 83.8965H43.9397C42.4452 83.8965 41.15 85.0936 41.15 86.6897C41.15 88.1861 42.4452 89.4829 43.9397 89.4829Z" fill="white"/>
</g>
<defs>
<linearGradient id="paint0_linear_2019_32301" x1="5" y1="329" x2="451.054" y2="325.92" gradientUnits="userSpaceOnUse">
<stop stop-color="#00CFAA"/>
<stop offset="1" stop-color="#00AA96"/>
</linearGradient>
<linearGradient id="paint1_linear_2019_32301" x1="70.4397" y1="321.618" x2="329.462" y2="319.913" gradientUnits="userSpaceOnUse">
<stop stop-color="#00CFAA"/>
<stop offset="1" stop-color="#00AA96"/>
</linearGradient>
<linearGradient id="paint2_linear_2019_32301" x1="248.762" y1="299.672" x2="331.83" y2="304.371" gradientUnits="userSpaceOnUse">
<stop stop-color="#1CE4C0"/>
<stop offset="1" stop-color="#205FCD"/>
</linearGradient>
<linearGradient id="paint3_linear_2019_32301" x1="366.548" y1="182.509" x2="392.544" y2="182.449" gradientUnits="userSpaceOnUse">
<stop stop-color="#00CFAA"/>
<stop offset="1" stop-color="#00AA96"/>
</linearGradient>
<linearGradient id="paint4_linear_2019_32301" x1="352.142" y1="267.096" x2="378.808" y2="267.063" gradientUnits="userSpaceOnUse">
<stop stop-color="#00CFAA"/>
<stop offset="1" stop-color="#00AA96"/>
</linearGradient>
<linearGradient id="paint5_linear_2019_32301" x1="347.888" y1="217.436" x2="356.948" y2="217.636" gradientUnits="userSpaceOnUse">
<stop stop-color="#1CE4C0"/>
<stop offset="1" stop-color="#205FCD"/>
</linearGradient>
<linearGradient id="paint6_linear_2019_32301" x1="358.328" y1="209.59" x2="389.468" y2="212.639" gradientUnits="userSpaceOnUse">
<stop stop-color="#1CE4C0"/>
<stop offset="1" stop-color="#205FCD"/>
</linearGradient>
<linearGradient id="paint7_linear_2019_32301" x1="355.302" y1="254.929" x2="371.844" y2="254.87" gradientUnits="userSpaceOnUse">
<stop stop-color="#00CFAA"/>
<stop offset="1" stop-color="#00AA96"/>
</linearGradient>
<linearGradient id="paint8_linear_2019_32301" x1="341.373" y1="258.48" x2="355.683" y2="258.935" gradientUnits="userSpaceOnUse">
<stop stop-color="#1CE4C0"/>
<stop offset="1" stop-color="#205FCD"/>
</linearGradient>
<linearGradient id="paint9_linear_2019_32301" x1="329.695" y1="112.727" x2="325.511" y2="120.584" gradientUnits="userSpaceOnUse">
<stop stop-color="#B0D0FF"/>
<stop offset="1" stop-color="#4270E4"/>
</linearGradient>
<linearGradient id="paint10_linear_2019_32301" x1="318.234" y1="112.727" x2="314.05" y2="120.584" gradientUnits="userSpaceOnUse">
<stop stop-color="#B0D0FF"/>
<stop offset="1" stop-color="#4270E4"/>
</linearGradient>
<linearGradient id="paint11_linear_2019_32301" x1="306.875" y1="112.727" x2="302.69" y2="120.584" gradientUnits="userSpaceOnUse">
<stop stop-color="#B0D0FF"/>
<stop offset="1" stop-color="#4270E4"/>
</linearGradient>
<clipPath id="clip0_2019_32301">
<rect width="437" height="329" fill="white" transform="matrix(-1 0 0 1 437 0)"/>
</clipPath>
</defs>
</svg>
